# xmcd
#
# Track frame offsets:
#	150
#	17442
#	40188
#	60572
#	85223
#	107630
#	125612
#	146571
#	160334
#	171921
#	187416
#	216074
#	232413
#	263106
#	281339
#
# Disc length: 4447 seconds
#
# Revision: 0
# Processed by: cddbd v1.5.2PL0 Copyright (c) Steve Scherf et al.
# Submitted via: audiograbber 1.83.01
#
DISCID=db115d0f
DTITLE=Various Artist - stereoplay 2016-05 - Der perfekte Klang Vol. 3
DYEAR=2016
DGENRE=Audiophile
TTITLE0=Carrie Newcomer - If Not Now
TTITLE1=Friend 'n Fellow - Train Of Tears
TTITLE2=Blues Company - Keep On Singin' The Blues
TTITLE3=Tobias Becker Bigband - Joaquin
TTITLE4=Erpfenbrass - The Chicken
TTITLE5=Paolo Fresu and Richard Galliano and Jan Lundgren - Leklat
TTITLE6=Friedemann - One Summer Eve
TTITLE7=Andreas Rohde - My Uncle Oswald
TTITLE8=Oscar Peterson - Travelin' On
TTITLE9=Ludwig van Beethoven - Diabelli-Variationen - Thema, V. 1 [Friedrich Gu
TTITLE9=lda]
TTITLE10=Ludwig van Beethoven - Klaviersonate op. 110, 1. Satz [Evgeni Koroliov
TTITLE10=]
TTITLE11=Johann Sebastian Bach - Violinsonate Nr. 1, 4.Satz: Presto [Midori Sei
TTITLE11=ler]
TTITLE12=Joseph Haydn - Streichquartett op. 74/1, 2. Satz [Auryn Quartett]
TTITLE13=Maurice Ravel - Laideronette aus "Ma Mère l'Oye" [Netherlands Philharm
TTITLE13=onic Orchestra - Carlo Rizzi]
TTITLE14=Nikolai Rimsky-Korsakov - Das Meer und Sindbads Schiff [Duisburger Phi
TTITLE14=lharmoniker - Jonathan Darlington]
EXTD=
EXTT0=
EXTT1=
EXTT2=
EXTT3=
EXTT4=
EXTT5=
EXTT6=
EXTT7=
EXTT8=
EXTT9=
EXTT10=
EXTT11=
EXTT12=
EXTT13=
EXTT14=
PLAYORDER=
